<svg width="44" height="36" xmlns="http://www.w3.org/2000/svg" xmlns:xlink="http://www.w3.org/1999/xlink">
 <title>right</title>
 <defs>
  <path d="m28.89,25.465l9.232,-15.208c3.44,-5.665 11.6,-10.257 18.228,-10.257l3,0l0,28l-32,0c0.593,-0.788 1.11,-1.637 1.54,-2.535zm-14.54,8.502l0,0.033l45,0l0,-6l-32,0c-2.736,3.643 -7.093,6 -12,6c-0.336,0 -0.67,-0.01 -1,-0.033z" id="b"/>
 </defs>
 <g>
  <title>background</title>
  <rect x="-1" y="-1" width="10.8" height="9.2" id="canvas_background" fill="none"/>
 </g>
 <g>
  <title>Layer 1</title>
  <g fill="none" fill-rule="evenodd" id="svg_1">
   <path d="m31.11,25.465l-9.23,-15.208c-3.442,-5.665 -11.602,-10.257 -18.23,-10.257l-3,0l0,28l32,0c-0.593,-0.788 -1.11,-1.637 -1.54,-2.535zm14.54,8.502l0,0.033l-45,0l0,-6l32,0c2.736,3.643 7.093,6 12,6c0.336,0 0.67,-0.01 1,-0.033z" fill="#b54b3a" id="svg_2"/>
   <g transform="matrix(-1,0,0,1,60,0) " id="svg_3">
    <use fill="#b54b3a" xlink:href="#b" id="svg_4"/>
    <use xlink:href="#b" id="svg_5" fill="#b54b3a"/>
   </g>
  </g>
 </g>
</svg>